<?xml version="1.0" encoding="utf-8"?>
<!-- Generator: Adobe Illustrator 16.0.0, SVG Export Plug-In . SVG Version: 6.00 Build 0)  -->
<!DOCTYPE svg PUBLIC "-//W3C//DTD SVG 1.1//EN" "http://www.w3.org/Graphics/SVG/1.1/DTD/svg11.dtd">
<svg version="1.1" id="Layer_1" xmlns="http://www.w3.org/2000/svg" xmlns:xlink="http://www.w3.org/1999/xlink" x="0px" y="0px"
	 width="34.016px" height="34.016px" viewBox="0 0 34.016 34.016" enable-background="new 0 0 34.016 34.016" xml:space="preserve">
<path fill="#D87DA5" d="M17.008,34.016c9.394,0,17.008-7.615,17.008-17.008C34.016,7.615,26.401,0,17.008,0
	C7.613,0,0,7.615,0,17.007C0,26.4,7.613,34.016,17.008,34.016"/>
<path fill-rule="evenodd" clip-rule="evenodd" fill="#FFFFFF" d="M25.338,15.296c-0.111-0.546-0.279-1.084-0.496-1.599
	c-0.213-0.504-0.477-0.99-0.783-1.444c-0.305-0.45-0.654-0.874-1.038-1.258c-0.385-0.385-0.808-0.734-1.259-1.038
	c-0.453-0.308-0.939-0.571-1.443-0.785c-0.514-0.216-1.053-0.385-1.599-0.495c-0.56-0.115-1.136-0.174-1.712-0.174
	c-0.577,0-1.153,0.059-1.713,0.174c-0.546,0.11-1.084,0.279-1.598,0.495c-0.504,0.213-0.99,0.477-1.445,0.785
	c-0.45,0.304-0.874,0.653-1.258,1.038c-0.384,0.384-0.733,0.808-1.037,1.258c-0.307,0.454-0.571,0.94-0.784,1.444
	c-0.217,0.514-0.384,1.052-0.496,1.599c-0.115,0.559-0.173,1.135-0.173,1.711c0,0.577,0.058,1.154,0.173,1.713
	c0.112,0.546,0.279,1.084,0.496,1.598c0.213,0.504,0.477,0.991,0.784,1.445c0.304,0.45,0.653,0.873,1.037,1.258
	c0.385,0.385,0.808,0.732,1.258,1.037c0.455,0.307,0.941,0.571,1.445,0.784c0.514,0.218,1.052,0.384,1.598,0.495
	c0.561,0.116,1.137,0.174,1.713,0.174c0.576,0,1.152-0.058,1.712-0.174c0.546-0.111,1.085-0.277,1.599-0.495
	c0.504-0.213,0.99-0.478,1.443-0.784c0.451-0.305,0.874-0.652,1.259-1.037c0.384-0.385,0.733-0.808,1.038-1.258
	c0.307-0.454,0.57-0.941,0.783-1.445c0.217-0.514,0.385-1.052,0.496-1.598c0.115-0.56,0.174-1.136,0.174-1.713
	C25.512,16.431,25.453,15.854,25.338,15.296z M24.268,16.935c-0.105-0.023-2.562-0.552-5.059-0.238
	c-0.051-0.124-0.103-0.249-0.156-0.375c-0.151-0.355-0.314-0.708-0.482-1.054c2.867-1.171,4.031-2.854,4.045-2.875
	C23.635,13.632,24.25,15.212,24.268,16.935z M21.805,11.558c-0.019,0.028-1.053,1.603-3.794,2.629
	c-1.241-2.281-2.605-4.093-2.714-4.237c0.549-0.133,1.122-0.205,1.712-0.205C18.846,9.745,20.524,10.431,21.805,11.558z
	 M15.268,9.956c0,0.001-0.001,0.001-0.001,0.001s-0.008,0.002-0.022,0.005C15.252,9.96,15.26,9.959,15.268,9.956z M13.909,10.439
	c0.097,0.129,1.44,1.95,2.697,4.185c-3.487,0.927-6.513,0.89-6.705,0.887C10.372,13.261,11.883,11.396,13.909,10.439z M9.745,17.007
	c0-0.078,0.003-0.153,0.006-0.229c0.128,0.002,3.717,0.083,7.456-1.035c0.208,0.407,0.407,0.821,0.589,1.234
	c-0.096,0.027-0.191,0.056-0.286,0.087c-3.919,1.267-5.907,4.793-5.907,4.793s0.002,0.002,0.002,0.004
	C10.449,20.574,9.745,18.873,9.745,17.007z M17.008,24.271c-1.758,0-3.37-0.625-4.626-1.665c0.096,0.078,0.163,0.127,0.163,0.127
	s1.392-3.035,5.699-4.536c0.016-0.006,0.032-0.011,0.048-0.016c1.022,2.655,1.444,4.88,1.551,5.515
	C18.972,24.065,18.013,24.271,17.008,24.271z M21.065,23.031c-0.073-0.438-0.461-2.57-1.413-5.188
	c2.344-0.375,4.375,0.268,4.525,0.317C23.854,20.185,22.696,21.93,21.065,23.031z"/>
</svg>
