<?xml version="1.0" encoding="utf-8"?>
<!-- Generator: Adobe Illustrator 16.0.4, SVG Export Plug-In . SVG Version: 6.00 Build 0)  -->
<!DOCTYPE svg PUBLIC "-//W3C//DTD SVG 1.1//EN" "http://www.w3.org/Graphics/SVG/1.1/DTD/svg11.dtd">
<svg version="1.1" id="Layer_1" xmlns="http://www.w3.org/2000/svg" xmlns:xlink="http://www.w3.org/1999/xlink" x="0px" y="0px"
	 width="25.5px" height="25.5px" viewBox="0 0 25.5 25.5" enable-background="new 0 0 25.5 25.5" xml:space="preserve">
<g id="Page-1">
	<g id="Core" transform="translate(-340.000000, -4.000000)">
		<g id="apps" transform="translate(340.000000, 4.000000)">
			<path id="Shape" fill="#696969" d="M0,6.375h6.375V0H0V6.375L0,6.375z M9.562,25.5h6.375v-6.375H9.562V25.5L9.562,25.5z M0,25.5
				h6.375v-6.375H0V25.5L0,25.5z M0,15.938h6.375V9.562H0V15.938L0,15.938z M9.562,15.938h6.375V9.562H9.562V15.938L9.562,15.938z
				 M19.125,0v6.375H25.5V0H19.125L19.125,0z M9.562,6.375h6.375V0H9.562V6.375L9.562,6.375z M19.125,15.938H25.5V9.562h-6.375
				V15.938L19.125,15.938z M19.125,25.5H25.5v-6.375h-6.375V25.5L19.125,25.5z"/>
		</g>
	</g>
</g>
</svg>
