<?xml version="1.0" encoding="utf-8"?>
<!-- Generator: Adobe Illustrator 16.0.0, SVG Export Plug-In . SVG Version: 6.00 Build 0)  -->
<!DOCTYPE svg PUBLIC "-//W3C//DTD SVG 1.1//EN" "http://www.w3.org/Graphics/SVG/1.1/DTD/svg11.dtd">
<svg version="1.1" id="Layer_1" xmlns="http://www.w3.org/2000/svg" xmlns:xlink="http://www.w3.org/1999/xlink" x="0px" y="0px"
	 width="538.756px" height="274.911px" viewBox="0 0 538.756 274.911" enable-background="new 0 0 538.756 274.911"
	 xml:space="preserve">
<g>
	<path fill="#FFFFFF" d="M263.623,189.272c-1.74,10.787-38.859,27.027-79.342,27.027c-69.25,0-105.558-31.319-137.689-43.151
		c-5.452,11.483-14.5,15.892-21.923,15.892c-14.268,0-13.804-22.619,7.772-22.619c2.436,0,4.872,0.232,7.308,0.695
		c0.812-5.219,1.276-11.6,1.276-19.487c0-1.972,0-15.427,0.116-17.283c-11.948,0.231-25.403-3.364-40.019-12.991
		c-2.552-1.625-0.232-4.408,1.856-3.017c14.036,9.28,27.027,12.76,38.279,12.644c2.204-37.699,18.096-46.979,33.523-46.979
		c27.259,0,12.063,41.528-23.315,49.183v18.443c0,8.815-1.276,15.892-3.248,21.575c34.104,11.252,72.267,41.295,137.341,41.295
		c35.495,0,73.194-10.903,74.818-22.039C261.187,182.892,264.55,183.356,263.623,189.272z M39.052,170.944
		c-2.552-0.58-5.104-0.812-7.656-0.812c-15.892,0-15.776,15.312-5.452,15.312C31.976,185.444,36.616,181.732,39.052,170.944z
		 M51.579,125.938c31.784-6.844,45.239-42.224,22.62-42.224C61.091,83.714,52.971,93.227,51.579,125.938z"/>
	<path fill="#FFFFFF" d="M96.587,177.44h-0.116c-17.748,0-22.503-15.312-22.503-29c0-16.355,10.904-28.65,22.852-28.65h0.116
		c17.748,0,22.62,15.312,22.62,28.999C119.555,165.145,108.651,177.44,96.587,177.44z M97.283,123.386
		c-9.744,0-12.875,7.424-12.875,25.055c0,17.748,2.552,25.637,11.716,25.637h0.116c9.628,0,12.875-7.424,12.875-24.939
		C109.115,131.39,106.447,123.386,97.283,123.386z"/>
	<path fill="#FFFFFF" d="M179.41,138.001c-5.336,5.221-10.324,7.54-14.731,7.889c-3.248,18.096-11.716,31.551-19.952,31.551
		c-10.904,0-18.096-12.875-18.211-34.336v-15.658c0-6.148,0.348-6.613,3.596-9.049c6.38-4.871,6.728,0.812,6.728,11.252v12.76
		c0,17.052,1.044,30.971,9.744,30.971c4.988,0,10.672-12.295,13.108-27.839c-16.124-4.176-23.083-33.755-5.916-33.755
		c5.916,0,12.18,7.888,12.18,19.139c0,4.061-0.348,8.004-0.812,11.832c3.596-0.463,7.656-2.552,12.063-6.959
		C179.294,133.71,181.614,135.681,179.41,138.001z M160.038,142.409c0.464-3.712,0.696-7.656,0.696-11.484
		c0-7.655-2.32-15.775-6.96-15.775C142.291,115.149,147.278,138.813,160.038,142.409z"/>
	<path fill="#FFFFFF" d="M213.86,158.069c0,9.047-4.64,19.371-16.587,19.371s-22.155-6.729-22.155-28.651
		c0-18.327,6.496-28.999,23.315-28.999c12.992,0,24.243,14.615-12.644,37.119c1.044,11.715,4.64,16.819,12.644,16.819
		c6.032,0,9.512-3.248,9.512-10.323c0-2.205-1.856-4.061-5.104-4.988c-3.944-1.16-3.248-9.279,3.016-9.279
		C211.541,149.138,213.86,154.241,213.86,158.069z M185.557,148.789c0,1.856,0,3.479,0.116,5.104
		c21.111-13.34,18.56-30.855,10.904-30.855C188.341,123.038,185.557,131.042,185.557,148.789z"/>
	<path fill="#FFFFFF" d="M228.592,119.79v28.999c0,19.372,1.044,24.939,7.888,24.939c4.523,0,9.512-3.596,11.947-20.415
		c0.812-5.568,4.292-5.104,3.248,0.812c-3.132,19.255-10.208,23.315-16.24,23.315c-9.164,0-17.283-4.872-17.283-28.651V119.79
		c0-3.944,0.232-7.889,0.464-11.6c-7.888,0.463-16.588-0.232-25.983-2.784c-2.9-0.696-1.624-4.06,0.812-3.364
		c9.164,2.436,17.748,3.133,25.403,2.553c3.248-34.336,17.284-57.767,33.523-57.767c32.942,0,19.719,50.111-23.432,59.855
		C228.708,110.974,228.592,115.267,228.592,119.79z M229.056,103.086c39.207-9.28,51.967-52.546,22.735-52.546
		C237.988,50.54,230.912,72.927,229.056,103.086z"/>
	<path fill="#FFFFFF" d="M294.826,241.007c-10.557,0-15.776-10.092-17.168-45.123c-17.631-4.988-43.383-5.8-79.458,2.553
		c-2.436,0.463-4.292-2.668-1.276-3.365c35.959-8.234,62.291-7.771,80.502-2.783c-0.232-6.729-0.348-14.268-0.348-22.735v-4.177
		c-3.132,7.772-8.004,12.064-14.151,12.064c-10.092,0-17.864-4.408-17.979-27.723v-22.271c0-6.148,0.348-6.613,3.596-9.049
		c6.496-4.871,6.728,0.812,6.728,11.252v19.371c0.116,18.908,1.624,25.057,9.396,25.057c6.496,0,11.368-11.484,12.412-28.42
		c0-5.916,0.116-16.123,0.116-18.211c0-6.148,0.348-6.613,3.596-9.049c6.496-4.871,6.728,0.812,6.728,11.252
		c0,3.016-0.115,14.5-0.115,19.371c0,0.232,0.115,20.532,0.115,20.532v26.099C320.808,209.919,317.097,241.007,294.826,241.007z
		 M287.517,199.479c0,28.42,0.928,37.815,9.164,37.815C313.384,237.295,315.473,212.239,287.517,199.479z"/>
	<path fill="#FFFFFF" d="M318.953,105.29c-2.783,22.504-46.051,34.915-59.97,11.832c-0.928-1.624-1.74-3.248-2.204-4.988
		c-26.795,11.02-45.123-10.672-27.723-33.755c17.399-23.2,46.515-18.908,68.438-4.292c61.479-44.311,161.932-22.62,142.328,5.104
		c-7.308,10.324-18.559,5.103-16.123,1.044c2.32-4.176,9.744-0.348,12.063-2.668c19.14-19.14-74.935-44.775-135.253-1.392
		c3.248,2.436,6.38,5.104,9.164,7.888c5.916,5.916,8.699,11.6,9.279,16.936c2.32,1.392,4.756,2.784,7.192,4.408
		c10.439-20.647,29.579-29.231,43.151-29.348c54.982-0.348,13.223,69.599-37.468,37.468c-1.624,7.075-2.552,15.543-2.552,25.52
		v1.623c0.115,25.52,4.988,33.408,14.615,33.408c8.004,0,11.368-6.496,12.412-12.645c0.115-1.392,0.115-3.248,0.115-5.451
		c0-6.148,0.465-6.729,3.597-9.164c6.495-4.872,6.844,0.928,6.844,11.252c0,8.467-0.231,5.916-0.231,6.031
		c-0.349,35.031-16.124,45.239-32.248,45.239c-17.863,0-20.531-23.548-9.627-28.651c8.352-3.943,12.295,5.568,4.756,7.424
		c-10.672,2.552-8.236,17.979,6.727,17.979c11.252,0,18.908-9.163,19.952-36.308c-3.016,4.408-7.54,7.656-14.151,7.656
		c-11.832,0-22.968-6.148-23.199-36.075v-1.972c0-12.064,2.203-22.271,5.799-30.623C322.666,107.494,320.809,106.334,318.953,105.29
		z M255.966,108.422c-1.276-11.251,6.612-22.851,26.215-20.995c3.944-4.292,8.236-8.12,12.76-11.484
		c-18.675-12.296-45.47-18.908-62.29,3.48C218.035,98.794,232.767,117.934,255.966,108.422z M259.794,106.565
		c6.264-3.247,12.875-8.583,19.719-16.355c0.116,0,0.116,0,0.116-0.115C265.014,89.398,259.678,98.33,259.794,106.565z
		 M315.009,102.97c-12.76-7.308-22.852-11.02-30.74-12.295c-0.579,0.463-1.043,1.043-1.508,1.623
		c-7.655,8.7-15.311,14.616-22.503,18.212c0.464,1.74,1.044,3.364,1.856,4.64C275.802,137.653,314.082,123.85,315.009,102.97z
		 M298.074,78.031c-3.944,3.016-7.771,6.38-11.368,9.976c7.772,1.392,17.052,4.756,27.956,10.672
		c-0.812-4.176-3.133-8.584-7.541-12.992C304.57,83.135,301.437,80.467,298.074,78.031z M332.757,109.813
		c45.934,30.855,86.418-30.391,35.959-30.043C355.029,79.887,339.601,86.034,332.757,109.813z"/>
	<path fill="#FFFFFF" d="M412.794,158.069c0,9.047-4.64,19.371-16.588,19.371c-11.947,0-22.155-6.729-22.155-28.651
		c0-18.327,6.496-28.999,23.315-28.999c12.992,0,24.244,14.615-12.644,37.119c1.044,11.715,4.64,16.819,12.644,16.819
		c6.032,0,9.512-3.248,9.512-10.323c0-2.205-1.855-4.061-5.104-4.988c-3.943-1.16-3.248-9.279,3.016-9.279
		C410.474,149.138,412.794,154.241,412.794,158.069z M384.492,148.789c0,1.856,0,3.479,0.115,5.104
		c21.111-13.34,18.561-30.855,10.904-30.855C387.275,123.038,384.492,131.042,384.492,148.789z"/>
	<path fill="#FFFFFF" d="M455.597,158.069c0,9.047-4.64,19.371-16.588,19.371c-11.947,0-22.155-6.729-22.155-28.651
		c0-18.327,6.496-28.999,23.315-28.999c12.992,0,24.244,14.615-12.644,37.119c1.044,11.715,4.64,16.819,12.644,16.819
		c6.032,0,9.512-3.248,9.512-10.323c0-2.205-1.855-4.061-5.104-4.988c-3.943-1.16-3.248-9.279,3.016-9.279
		C453.277,149.138,455.597,154.241,455.597,158.069z M427.294,148.789c0,1.856,0,3.479,0.115,5.104
		c21.111-13.34,18.561-30.855,10.904-30.855C430.078,123.038,427.294,131.042,427.294,148.789z"/>
	<path fill="#FFFFFF" d="M525.66,154.125c-3.132,19.255-10.208,23.315-16.355,23.315c-9.164,0-17.168-4.641-17.168-20.067v-0.464
		c0-11.02,0.928-15.893-5.916-15.893c-5.916,0-15.66,11.484-15.66,29.116v0.348c-0.348,6.844-4.059,7.308-8.583,6.96
		c-3.712-0.348-1.972-2.088-1.972-10.556c0-9.048,0.115-37.119,0.115-51.618v-0.58c-9.627-0.812-20.879-2.9-33.986-6.496
		c-2.9-0.812-1.625-4.176,0.812-3.48c12.991,3.828,24.011,5.916,33.291,6.729c0.929-36.424,14.848-45.239,24.592-45.239
		c28.071,0,41.643,48.603-14.269,48.95v0.117c0,8.699-0.115,18.326-0.115,29.463c4.64-15.544,14.964-26.216,22.039-27.955
		c12.876-3.248,11.484,12.76,1.276,8.467c-9.164-3.828-17.979,9.164-21.228,23.199c4.292-7.191,10.324-11.02,14.848-11.02
		c9.048,0,15.08,4.061,15.08,19.488v0.464c0,11.02,1.159,16.472,8.003,16.472c4.408,0,9.513-3.712,11.948-20.531
		C523.223,147.745,526.587,148.325,525.66,154.125z M470.56,111.901c48.256-0.695,37.352-41.99,13.572-41.99
		C476.592,69.911,471.025,79.307,470.56,111.901z"/>
</g>
<g>
	<g id="Left_Lens_7_">
		<path fill="#FFFFFF" d="M130.212,80.88c0,0-0.178,0.556-0.513,1.597c-0.135,0.524-0.414,1.162-0.707,1.927
			c-0.262,0.784-0.697,1.606-1.145,2.57c-0.994,1.858-2.367,4.136-4.649,6.328c-2.266,2.16-5.521,4.184-9.437,5.047
			c-3.898,0.867-8.279,0.614-12.46-0.659l-0.79-0.234l-0.049-0.015c0.012,0.005-0.288-0.087-0.182-0.057l-0.089-0.034l-0.177-0.067
			l-0.355-0.139c-0.471-0.192-0.945-0.387-1.422-0.583l-0.357-0.15l-0.406-0.204l-0.814-0.419c-0.536-0.284-1.093-0.559-1.592-0.885
			c-1.999-1.273-3.87-2.862-5.477-4.709c-3.152-3.806-4.969-8.563-5.318-13.39c-0.188-2.416-0.087-4.85,0.202-7.278l0.281-1.811
			l0.068-0.456l0.034-0.229c-0.019,0.04,0.012-0.114,0.015-0.161l0.118-0.87c0.129-1.157,0.32-2.348,0.367-3.469
			c0.131-2.304,0.262-4.607,0.392-6.902c0.087-1.183,0.187-2.364,0.299-3.541l0.01-0.11l0.005-0.055
			c-0.054,0.315-0.013,0.056-0.024,0.113l0.014-0.217l0.007-0.108c-0.002-0.017-0.012,0.004-0.016,0.005
			c-0.011,0.011-0.019,0.023-0.022,0.035c-0.02-0.03-0.048-0.228-0.087-0.399c-0.083-0.401-0.225-0.939-0.33-1.854
			c-0.038-0.477-0.091-1.047,0.089-1.907c0.066-0.384,0.261-0.901,0.488-1.342c0.27-0.469,0.599-0.917,0.978-1.252
			c0.397-0.383,0.741-0.582,1.128-0.807c0.232-0.101-0.317,0.113,0.558-0.245l0.05-0.02l0.1-0.039l0.2-0.078l0.398-0.156
			c0.291-0.082,0.716-0.167,1.082-0.215c0.363-0.048,0.804-0.088,1.102-0.077c0.263,0.017,0.526,0.039,0.79,0.068
			c0.565,0.047,0.967,0.163,1.397,0.273c0.463,0.111,0.776,0.236,1.13,0.359c0.373,0.128,0.648,0.243,0.938,0.359
			c1.173,0.482,1.844,0.715,2.994,1.124c1.044,0.377,2.091,0.737,3.109,1.123c1.997,0.74,3.961,1.468,5.883,2.18
			c0.914,0.301,1.818,0.6,2.711,0.894c1.005,0.345,1.999,0.685,2.979,1.021c1.037,0.406,2.142,0.896,3.141,1.361
			c0.958,0.522,1.927,0.968,2.809,1.56c1.789,1.126,3.409,2.401,4.78,3.831c2.778,2.821,4.576,6.085,5.566,9.053
			c0.987,2.994,1.194,5.663,1.194,7.785c-0.061,1.069-0.071,2.008-0.229,2.815c-0.112,0.81-0.202,1.493-0.354,2.033
			c-0.259,1.086-0.397,1.666-0.397,1.666L130.212,80.88z M129.447,80.648c0,0,0.108-0.561,0.31-1.612
			c0.144-0.519,0.131-1.185,0.167-1.953c0.083-0.769-0.08-1.653-0.189-2.624c-0.361-1.927-1.238-4.188-2.906-6.237
			c-1.629-2.074-3.966-3.881-6.642-5.438c-0.647-0.417-1.368-0.765-2.081-1.137c-0.684-0.407-1.478-0.688-2.21-1.069
			c-0.749-0.356-1.561-0.642-2.343-0.991c-0.779-0.266-1.571-0.537-2.373-0.811c-0.931-0.268-1.875-0.54-2.831-0.814
			c-1.064-0.337-2.141-0.678-3.23-1.023c-1.03-0.383-2.056-0.811-3.1-1.221c-1.031-0.409-1.99-0.876-3.002-1.317
			c-0.997-0.453-2.002-0.911-3.015-1.371c-0.916-0.406-2.295-1.068-3.162-1.537c-0.223-0.117-0.458-0.241-0.614-0.31
			c-0.171-0.081-0.375-0.188-0.463-0.212c-0.113-0.046-0.251-0.115-0.255-0.104c-0.018-0.007-0.036-0.021-0.055-0.041
			c0.016-0.007,0.172,0.005,0.252-0.029c0.083-0.021,0.222-0.098,0.233-0.136l-0.412,0.117l-0.206,0.059l-0.103,0.029l-0.052,0.015
			c0.844-0.342,0.264-0.108,0.465-0.191c0.146-0.074,0.224-0.153,0.426-0.322c0.148-0.16,0.33-0.359,0.435-0.595
			c0.114-0.18,0.173-0.44,0.196-0.539c0.039-0.303-0.002-0.291-0.008-0.197c-0.022,0.231,0.056,0.825,0.097,1.569
			c0.02,0.401,0.032,0.779,0.002,1.327L92.74,52.4l-0.027,0.221l-0.022,0.106l-0.045,0.212l-0.039,0.22l-0.014,0.052l-0.027,0.103
			c-0.288,1.1-0.59,2.202-0.905,3.308c-0.321,1.127-0.644,2.256-0.966,3.386l-1.062,3.475c-0.328,1.183-0.761,2.242-1.142,3.359
			c-0.365,1.089-0.729,2.178-1.093,3.265c-0.588,2.135-0.846,4.348-0.714,6.512c0.113,2.165,0.711,4.271,1.754,6.063
			c1.028,1.802,2.459,3.279,4.058,4.4c1.65,1.079,3.397,1.865,5.176,2.452c0.433,0.162,0.869,0.231,1.285,0.367l0.622,0.183
			l0.31,0.092l0.378,0.085c0.502,0.119,1,0.237,1.496,0.354l0.369,0.095l0.184,0.048l0.092,0.024c0.137,0.04-0.134-0.041-0.091-0.03
			l0.042,0.008l0.677,0.119c3.581,0.706,6.873,1.094,9.928,1.127c3.035-0.002,5.89-0.452,8.286-1.526
			c2.415-1.037,4.237-2.676,5.451-4.229c0.554-0.813,1.104-1.532,1.41-2.234c0.346-0.686,0.65-1.267,0.806-1.8
			c0.35-1.036,0.536-1.588,0.536-1.588L129.447,80.648z"/>
	</g>
	<g id="Right_Lens_7_">
		<path fill="#FFFFFF" d="M148.731,87.295c0,0-0.125,0.569-0.361,1.637c-0.142,0.537-0.181,1.191-0.238,1.958
			c-0.099,0.759,0.001,1.658,0.056,2.641c0.239,1.957,0.955,4.301,2.488,6.435c1.499,2.155,3.711,4.015,6.311,5.582
			c2.634,1.548,5.654,2.913,9.086,4.156l0.641,0.246l0.041,0.016c0.042,0.014-0.231-0.057-0.094-0.021l0.091,0.026l0.182,0.054
			l0.365,0.109c0.485,0.155,0.973,0.312,1.464,0.469l0.368,0.121l0.313,0.082l0.627,0.165c0.426,0.098,0.835,0.264,1.29,0.348
			c1.827,0.414,3.729,0.643,5.699,0.569c1.947-0.136,3.935-0.662,5.746-1.676c1.818-0.997,3.417-2.493,4.631-4.289
			c1.229-1.786,2.15-3.814,2.748-5.946c0.249-1.119,0.499-2.239,0.748-3.361c0.25-1.152,0.426-2.284,0.755-3.466l0.883-3.524
			c0.307-1.134,0.614-2.268,0.919-3.399c0.301-1.108,0.611-2.209,0.932-3.3l0.03-0.103l0.015-0.051l0.081-0.21l0.071-0.205
			l0.036-0.103l0.092-0.204l0.207-0.421c0.256-0.482,0.462-0.801,0.686-1.134c0.419-0.616,0.792-1.084,0.893-1.293
			c0.043-0.083,0.014-0.114-0.109,0.167c-0.031,0.097-0.115,0.35-0.11,0.563c-0.031,0.256,0.021,0.521,0.066,0.733
			c0.086,0.25,0.112,0.357,0.199,0.495c0.129,0.175-0.245-0.322,0.299,0.402l-0.037-0.039l-0.073-0.078l-0.146-0.156l-0.292-0.312
			c-0.009,0.04,0.07,0.176,0.13,0.237c0.05,0.07,0.191,0.141,0.2,0.154c-0.026,0.007-0.049,0.01-0.068,0.007
			c0.001-0.011-0.152-0.024-0.273-0.043c-0.087-0.025-0.318-0.039-0.506-0.058c-0.17-0.021-0.436-0.036-0.686-0.052
			c-0.985-0.046-2.506-0.19-3.5-0.314c-1.104-0.128-2.201-0.255-3.289-0.381c-1.095-0.145-2.157-0.24-3.251-0.421
			c-1.105-0.187-2.205-0.35-3.285-0.553c-1.11-0.266-2.209-0.529-3.294-0.789c-0.96-0.258-1.91-0.512-2.846-0.763
			c-0.829-0.179-1.646-0.355-2.451-0.529c-0.85-0.105-1.693-0.28-2.518-0.36c-0.824-0.052-1.649-0.221-2.445-0.225
			c-0.802-0.05-1.599-0.124-2.368-0.1c-3.096-0.046-6.03,0.297-8.496,1.232c-2.486,0.895-4.403,2.379-5.707,3.844
			c-0.594,0.774-1.19,1.448-1.516,2.149c-0.366,0.677-0.721,1.241-0.865,1.759c-0.369,1.005-0.566,1.541-0.566,1.541L148.731,87.295
			z M147.956,87.099c0,0,0.181-0.567,0.52-1.631c0.147-0.542,0.423-1.174,0.745-1.925c0.281-0.772,0.757-1.582,1.257-2.529
			c1.095-1.817,2.65-3.998,5.04-6.053c2.379-2.031,5.603-3.899,9.439-4.883c1.912-0.517,3.958-0.773,6.071-0.815
			c1.061-0.052,2.12,0.066,3.21,0.113c1.096,0.116,2.295,0.267,3.393,0.454c1.012,0.218,2.039,0.438,3.077,0.662
			c0.917,0.208,1.846,0.419,2.784,0.632c2.014,0.381,4.072,0.771,6.165,1.167c1.071,0.194,2.154,0.426,3.243,0.642
			c1.196,0.243,1.892,0.39,3.146,0.582c0.308,0.05,0.603,0.094,0.988,0.176c0.368,0.078,0.699,0.132,1.154,0.276
			c0.426,0.128,0.828,0.236,1.337,0.487c0.24,0.111,0.478,0.228,0.711,0.35c0.26,0.144,0.617,0.405,0.903,0.634
			c0.288,0.23,0.608,0.521,0.816,0.743l0.261,0.339l0.131,0.169l0.065,0.085l0.033,0.042c0.563,0.755,0.204,0.291,0.35,0.496
			c0.216,0.392,0.407,0.739,0.55,1.272c0.152,0.482,0.204,1.035,0.193,1.577c-0.032,0.496-0.132,1.039-0.273,1.403
			c-0.29,0.83-0.629,1.291-0.907,1.681c-0.562,0.73-0.961,1.118-1.239,1.419c-0.123,0.127-0.249,0.282-0.281,0.299
			c0.002-0.013,0.002-0.026-0.001-0.042c-0.003-0.003,0-0.024-0.011-0.013l-0.05,0.097l-0.1,0.192
			c0.02-0.055-0.081,0.189,0.038-0.11l-0.024,0.05l-0.048,0.1c-0.511,1.066-1.035,2.129-1.57,3.187
			c-1.073,2.033-2.149,4.074-3.226,6.115c-0.538,0.984-0.989,2.104-1.475,3.161l-0.348,0.806c-0.021,0.043-0.075,0.19-0.07,0.146
			l-0.089,0.214l-0.176,0.426l-0.693,1.696c-1.006,2.229-2.174,4.366-3.582,6.339c-2.789,3.954-6.801,7.093-11.464,8.727
			c-2.329,0.752-4.751,1.148-7.121,1.208c-0.596,0.021-1.215-0.03-1.82-0.063l-0.913-0.062l-0.453-0.034l-0.383-0.055
			c-0.51-0.079-1.017-0.157-1.52-0.234l-0.375-0.064l-0.187-0.034l-0.093-0.017c0.107,0.028-0.198-0.048-0.185-0.045l-0.05-0.013
			l-0.797-0.207c-4.238-1.066-8.121-3.109-11.013-5.863c-2.91-2.76-4.655-6.172-5.481-9.191c-0.825-3.056-0.826-5.716-0.718-7.819
			c0.113-1.057,0.165-1.985,0.345-2.793c0.144-0.807,0.234-1.496,0.389-2.016c0.25-1.064,0.384-1.632,0.384-1.632L147.956,87.099z"
			/>
	</g>
	<path id="Center_7_" fill="none" stroke="#FFFFFF" stroke-width="8" stroke-miterlimit="10" d="M129.694,78.293
		c0,0,8.921,1.214,11.087,1.843c1.848,0.537,9.155,3.783,9.155,3.783"/>
	<g id="right_7_" display="none">
		<path display="inline" fill="#FFFFFF" d="M198.504,79.433c0,0-0.524-4.12-1.592-10.204c-0.261-1.521-0.567-3.163-0.922-4.886
			c-0.36-1.723-0.727-3.536-1.184-5.382c-0.448-1.847-0.971-3.731-1.522-5.605c-0.563-1.869-1.217-3.724-1.994-5.423
			c-0.764-1.68-1.8-3.221-2.759-3.987c-0.115-0.127-0.228-0.143-0.33-0.218c-0.103-0.063-0.203-0.145-0.281-0.138
			c-0.04-0.008-0.078-0.019-0.113-0.031l-0.051-0.021l-0.023-0.013c-0.285-0.141,0.383,0.188,0.304,0.151l-0.022-0.008l-0.044-0.016
			l-0.355-0.125l-0.088-0.031l0.041,0.039c0.028,0.025,0.058,0.046,0.09,0.064c0.039,0.036,0.187,0.061,0.146,0.068
			c-0.039,0.008-0.076,0.014-0.112,0.018l-0.316,0.024c-0.255,0.028-0.571,0.051-0.917,0.11c-1.396,0.197-3.071,0.564-4.668,0.91
			c-1.652,0.387-3.213,0.753-4.655,1.091c-1.474,0.352-2.859,0.654-4.104,0.912c-1.24,0.268-2.357,0.452-3.28,0.61
			c-0.924,0.156-1.667,0.258-2.18,0.317c-0.516,0.055-0.792,0.083-0.792,0.083l-0.389-0.699c0,0,0.172-0.23,0.514-0.625
			c0.34-0.398,0.853-0.961,1.539-1.629c0.687-0.666,1.532-1.466,2.564-2.285c1.028-0.829,2.222-1.717,3.597-2.587
			c1.373-0.878,2.914-1.754,4.671-2.536c1.761-0.793,3.693-1.517,6.141-1.831c0.615-0.067,1.276-0.116,2.003-0.087
			c0.386,0.028,0.721,0.02,1.161,0.104l0.626,0.111c0.206,0.038,0.59,0.147,0.872,0.238l0.453,0.158l0.222,0.085l0.084,0.044
			l0.333,0.175l0.407,0.208l0.132,0.092l0.261,0.19l0.513,0.391c0.36,0.262,0.616,0.543,0.883,0.826
			c0.255,0.282,0.558,0.57,0.745,0.856c1.711,2.319,2.479,4.576,3.174,6.748c0.665,2.176,1.107,4.316,1.451,6.411
			c0.355,2.092,0.554,4.148,0.714,6.126c0.325,3.957,0.368,7.627,0.348,10.765c-0.037,3.138-0.149,5.743-0.276,7.565
			c-0.139,1.821-0.219,2.862-0.219,2.862L198.504,79.433z"/>
	</g>
	<g id="left_7_" display="none">
		<path display="inline" fill="#FFFFFF" d="M89.506,48.745c0,0,0.469-0.933,1.289-2.564c0.831-1.626,2.079-3.916,3.667-6.623
			c1.601-2.697,3.532-5.82,5.851-9.042c1.158-1.612,2.39-3.271,3.772-4.879c1.376-1.617,2.859-3.221,4.55-4.742
			c1.716-1.502,3.538-3.039,6.2-4.143c0.307-0.149,0.715-0.24,1.079-0.35c0.375-0.104,0.738-0.213,1.182-0.251l0.641-0.07
			l0.322-0.028l0.161-0.01l0.456,0.032l0.376,0.021l0.094,0.005l0.231,0.04l0.469,0.098c0.29,0.067,0.673,0.171,0.873,0.246
			l0.594,0.228c0.421,0.154,0.705,0.334,1.049,0.509c0.638,0.351,1.18,0.733,1.671,1.108c1.936,1.532,3.216,3.149,4.316,4.736
			c1.102,1.577,1.97,3.122,2.693,4.583c0.729,1.455,1.293,2.832,1.746,4.072c0.461,1.234,0.772,2.355,1.017,3.28
			c0.242,0.926,0.391,1.673,0.477,2.189c0.089,0.515,0.117,0.801,0.117,0.801l-0.693,0.398c0,0-0.221-0.167-0.635-0.48
			c-0.409-0.315-0.993-0.786-1.704-1.396c-0.709-0.611-1.572-1.345-2.495-2.214c-0.933-0.863-1.964-1.836-3.044-2.898
			c-1.061-1.033-2.209-2.152-3.424-3.336c-1.19-1.121-2.435-2.299-3.529-3.188c-0.266-0.229-0.523-0.411-0.728-0.567l-0.258-0.183
			c-0.029-0.021-0.058-0.046-0.086-0.073c-0.028-0.025,0.109,0.029,0.163,0.019c0.037,0,0.074-0.002,0.111-0.009
			c0.017-0.003,0.04-0.007,0.052-0.013l-0.092-0.019l-0.369-0.077l-0.046-0.01l-0.023-0.005c0.688,0.056,0.187,0.016,0.338,0.028
			l-0.027-0.001l-0.055-0.009c-0.037-0.007-0.074-0.018-0.113-0.032c-0.063-0.046-0.192-0.028-0.312-0.027
			c-0.126,0.011-0.231-0.033-0.396,0.017c-1.217,0.161-2.9,0.946-4.421,1.992c-1.542,1.055-3.059,2.306-4.506,3.616
			c-1.439,1.321-2.859,2.665-4.196,4.016c-1.344,1.346-2.593,2.709-3.79,3.999c-1.194,1.293-2.302,2.542-3.311,3.71
			c-4.053,4.662-6.627,7.919-6.627,7.919L89.506,48.745z"/>
	</g>
</g>
</svg>
